<svg width="119" height="120" viewBox="0 0 119 120" fill="none" xmlns="http://www.w3.org/2000/svg">
<circle cx="59.5" cy="60.4" r="59.5" fill="#F5F5F5"/>
<g clip-path="url(#clip0_347_15010)">
<path d="M59.9739 62.5027C47.8257 62.5027 37.9333 52.6177 37.9333 40.4622C37.9333 28.3067 47.8257 18.4216 59.9739 18.4216C72.1221 18.4216 82.0145 28.3067 82.0145 40.4622C82.0145 52.6177 72.1294 62.5027 59.9739 62.5027ZM59.9739 25.5178C51.7388 25.5178 45.0295 32.2198 45.0295 40.4622C45.0295 48.7046 51.7315 55.4065 59.9739 55.4065C68.2163 55.4065 74.9183 48.7046 74.9183 40.4622C74.9183 32.2198 68.2163 25.5178 59.9739 25.5178Z" fill="#808080"/>
<path d="M29.0997 95.3483C28.6325 95.3483 28.1579 95.2607 27.698 95.0563C25.8947 94.2824 25.0698 92.1944 25.8436 90.3912C31.7133 76.7536 45.1099 67.9418 59.974 67.9418C74.838 67.9418 88.2347 76.7536 94.1044 90.3912C94.8782 92.1944 94.0532 94.2824 92.25 95.0563C90.4394 95.852 88.3588 94.9978 87.5849 93.2019C82.8322 82.1707 71.9981 75.038 59.974 75.038C47.9499 75.038 37.1085 82.1707 32.3631 93.2019C31.7863 94.5452 30.4795 95.3483 29.0997 95.3483Z" fill="#808080"/>
</g>
<defs>
<clipPath id="clip0_347_15010">
<rect width="68.8448" height="76.9412" fill="white" transform="translate(25.5522 18.4216)"/>
</clipPath>
</defs>
</svg>
