<svg width="49" height="49" viewBox="0 0 49 49" fill="none" xmlns="http://www.w3.org/2000/svg">
<g clip-path="url(#clip0_3_10772)">
<path d="M32.6632 18.3158V14.3579H28.7053V8.91579H32.6644V4.9579H38.1065V8.91579H42.0644V14.3579H38.1065V18.3158H32.6632ZM34.1474 16.8316H36.6211V12.8737H40.5789V10.4H36.6223V6.44211H34.1486V10.3988H30.1907V12.8724H34.1486V16.8303L34.1474 16.8316Z" fill="#00938B"/>
<path d="M13.6158 27.2211C10.4792 27.2211 7.92632 24.6682 7.92632 21.5316C7.92632 18.3949 10.4792 15.8421 13.6158 15.8421C16.7524 15.8421 19.3053 18.3949 19.3053 21.5316C19.3053 24.6682 16.7524 27.2211 13.6158 27.2211ZM13.6158 17.3263C11.2967 17.3263 9.41053 19.2125 9.41053 21.5316C9.41053 23.8507 11.2967 25.7368 13.6158 25.7368C15.9349 25.7368 17.8211 23.8507 17.8211 21.5316C17.8211 19.2125 15.9349 17.3263 13.6158 17.3263Z" fill="#00938B"/>
<path d="M42.3105 48H23.5105C23.2768 48 23.0566 47.8899 22.9168 47.7019C22.7771 47.5139 22.7326 47.2727 22.7993 47.0476L27.7467 30.2266C27.8395 29.9112 28.1289 29.6935 28.4591 29.6935H47.2591C47.4929 29.6935 47.7131 29.8036 47.8528 29.9916C47.9926 30.1796 48.0371 30.4208 47.9703 30.6459L43.0229 47.4669C42.9302 47.7823 42.6408 48 42.3105 48ZM24.5025 46.5158H41.7552L46.2659 31.1789H29.0132L24.5025 46.5158Z" fill="#00938B"/>
<path d="M37.3632 38.6H34.3947V40.0842H37.3632V38.6Z" fill="#00938B"/>
<path d="M35.3842 27.2211C35.1591 27.2211 34.9451 27.1184 34.8041 26.9428L31.0689 22.2737H25.4882C23.9879 22.2737 22.7672 21.0529 22.7672 19.5526V3.72105C22.7672 2.22076 23.9879 1 25.4882 1H45.2777C46.778 1 47.9988 2.22076 47.9988 3.72105V19.5526C47.9988 21.0529 46.778 22.2737 45.2777 22.2737H39.6971L35.9618 26.9428C35.8208 27.1184 35.6081 27.2211 35.3817 27.2211H35.3842ZM25.4895 2.48421C24.808 2.48421 24.2526 3.03955 24.2526 3.72105V19.5526C24.2526 20.2341 24.808 20.7895 25.4895 20.7895H31.4263C31.6514 20.7895 31.8654 20.8921 32.0064 21.0678L35.3842 25.2903L38.762 21.0678C38.903 20.8921 39.1158 20.7895 39.3421 20.7895H45.2789C45.9604 20.7895 46.5158 20.2341 46.5158 19.5526V3.72105C46.5158 3.03955 45.9604 2.48421 45.2789 2.48421H25.4895Z" fill="#00938B"/>
<path d="M23.5105 46.5158H18.5632V48L23.5105 48V46.5158Z" fill="#00938B"/>
<path d="M13.6158 48H4.21579C2.44216 48 1 46.5578 1 44.7842C1 44.5702 1.0235 44.355 1.07174 44.1299C1.07421 44.0866 1.08039 44.0433 1.09153 44.0013L4.05995 32.1276C4.07108 32.0831 4.08592 32.0398 4.10447 32.0002C4.50521 30.6372 5.75318 29.696 7.18421 29.696H20.0474C21.4796 29.696 22.7288 30.6384 23.1283 32.0027C23.1469 32.0423 23.1617 32.0843 23.1716 32.1276L25.675 42.151L24.2353 42.5109L21.7604 32.5988C21.7456 32.563 21.7319 32.5259 21.7233 32.4875C21.5303 31.717 20.8427 31.1789 20.0486 31.1789H7.18421C6.39016 31.1789 5.70247 31.717 5.50953 32.4875C5.49963 32.5271 5.48726 32.5642 5.47118 32.6013L2.55966 44.2462C2.55595 44.2845 2.54976 44.3229 2.54111 44.3612C2.50276 44.5171 2.48421 44.6519 2.48421 44.7854C2.48421 45.7403 3.26095 46.517 4.21579 46.517H13.6158C14.2973 46.517 14.8526 45.9617 14.8526 45.2802C14.8526 44.5987 14.2973 44.0433 13.6158 44.0433H7.13474C6.90592 44.0433 6.69071 43.9382 6.54971 43.7576C6.40871 43.5771 6.35924 43.3421 6.41489 43.1207L7.89911 37.1838L9.33879 37.5437L8.08463 42.5579H13.6158C15.1161 42.5579 16.3368 43.7787 16.3368 45.2789C16.3368 46.7792 15.1161 48 13.6158 48Z" fill="#00938B"/>
<path d="M23.5105 48H42.3105C42.6408 48 42.9302 47.7823 43.0229 47.4669L47.9703 30.6459C48.0371 30.4208 47.9926 30.1796 47.8528 29.9916C47.7131 29.8036 47.4929 29.6935 47.2591 29.6935H28.4591C28.1289 29.6935 27.8395 29.9112 27.7467 30.2266L22.7993 47.0476C22.7326 47.2727 22.7771 47.5139 22.9168 47.7019C23.0566 47.8899 23.2768 48 23.5105 48ZM23.5105 48V46.5158H18.5632V48L23.5105 48ZM32.6632 18.3158V14.3579H28.7053V8.91579H32.6644V4.9579H38.1065V8.91579H42.0644V14.3579H38.1065V18.3158H32.6632ZM34.1474 16.8316H36.6211V12.8737H40.5789V10.4H36.6223V6.44211H34.1486V10.3988H30.1907V12.8724H34.1486V16.8303L34.1474 16.8316ZM13.6158 27.2211C10.4792 27.2211 7.92632 24.6682 7.92632 21.5316C7.92632 18.3949 10.4792 15.8421 13.6158 15.8421C16.7524 15.8421 19.3053 18.3949 19.3053 21.5316C19.3053 24.6682 16.7524 27.2211 13.6158 27.2211ZM13.6158 17.3263C11.2967 17.3263 9.41053 19.2125 9.41053 21.5316C9.41053 23.8507 11.2967 25.7368 13.6158 25.7368C15.9349 25.7368 17.8211 23.8507 17.8211 21.5316C17.8211 19.2125 15.9349 17.3263 13.6158 17.3263ZM24.5025 46.5158H41.7552L46.2659 31.1789H29.0132L24.5025 46.5158ZM34.3947 38.6H37.3632V40.0842H34.3947V38.6ZM35.3842 27.2211C35.1591 27.2211 34.9451 27.1184 34.8041 26.9428L31.0689 22.2737H25.4882C23.9879 22.2737 22.7672 21.0529 22.7672 19.5526V3.72105C22.7672 2.22076 23.9879 1 25.4882 1H45.2777C46.778 1 47.9988 2.22076 47.9988 3.72105V19.5526C47.9988 21.0529 46.778 22.2737 45.2777 22.2737H39.6971L35.9618 26.9428C35.8208 27.1184 35.6081 27.2211 35.3817 27.2211H35.3842ZM25.4895 2.48421C24.808 2.48421 24.2526 3.03955 24.2526 3.72105V19.5526C24.2526 20.2341 24.808 20.7895 25.4895 20.7895H31.4263C31.6514 20.7895 31.8654 20.8921 32.0064 21.0678L35.3842 25.2903L38.762 21.0678C38.903 20.8921 39.1158 20.7895 39.3421 20.7895H45.2789C45.9604 20.7895 46.5158 20.2341 46.5158 19.5526V3.72105C46.5158 3.03955 45.9604 2.48421 45.2789 2.48421H25.4895ZM13.6158 48H4.21579C2.44216 48 1 46.5578 1 44.7842C1 44.5702 1.0235 44.355 1.07174 44.1299C1.07421 44.0866 1.08039 44.0433 1.09153 44.0013L4.05995 32.1276C4.07108 32.0831 4.08592 32.0398 4.10447 32.0002C4.50521 30.6372 5.75318 29.696 7.18421 29.696H20.0474C21.4796 29.696 22.7288 30.6384 23.1283 32.0027C23.1469 32.0423 23.1617 32.0843 23.1716 32.1276L25.675 42.151L24.2353 42.5109L21.7604 32.5988C21.7456 32.563 21.7319 32.5259 21.7233 32.4875C21.5303 31.717 20.8427 31.1789 20.0486 31.1789H7.18421C6.39016 31.1789 5.70247 31.717 5.50953 32.4875C5.49963 32.5271 5.48726 32.5642 5.47118 32.6013L2.55966 44.2462C2.55595 44.2845 2.54976 44.3229 2.54111 44.3612C2.50276 44.5171 2.48421 44.6519 2.48421 44.7854C2.48421 45.7403 3.26095 46.517 4.21579 46.517H13.6158C14.2973 46.517 14.8526 45.9617 14.8526 45.2802C14.8526 44.5987 14.2973 44.0433 13.6158 44.0433H7.13474C6.90592 44.0433 6.69071 43.9382 6.54971 43.7576C6.40871 43.5771 6.35924 43.3421 6.41489 43.1207L7.89911 37.1838L9.33879 37.5437L8.08463 42.5579H13.6158C15.1161 42.5579 16.3368 43.7787 16.3368 45.2789C16.3368 46.7792 15.1161 48 13.6158 48Z" stroke="#00938B"/>
</g>
<defs>
<clipPath id="clip0_3_10772">
<rect width="49" height="49" fill="white"/>
</clipPath>
</defs>
</svg>
