<svg width="49" height="49" viewBox="0 0 49 49" fill="none" xmlns="http://www.w3.org/2000/svg">
<g id="_&#195;&#144;&#194;&#187;&#195;&#144;&#194;&#190;&#195;&#144;&#194;&#185;_44" clip-path="url(#clip0_3_10780)">
<g id="Vector">
<path d="M20.6345 34.2559H28.3655V28.3655H34.2559V20.6345H28.3655V14.7441H20.6345V20.6345H14.7441V28.3655H20.6345V34.2559ZM26.5248 32.4151H22.4752V26.5248H16.5848V22.4752H22.4752V16.5849H26.5248V22.4752H32.4151V26.5248H26.5248V32.4151Z" fill="#00938B"/>
<path d="M45.9052 34.208C47.2956 31.1536 48 27.8869 48 24.5C48 11.5425 37.4575 1 24.5 1C18.8931 1 13.5157 2.98554 9.26733 6.60809L4.67041 2.62966L6.01905 14.6484L18.1065 14.2471L13.6986 10.4405C16.7922 8.06473 20.5878 6.7664 24.5 6.7664C28.4122 6.7664 32.5084 8.16781 35.6524 10.7142L36.8108 9.28329C33.3404 6.47311 28.9681 4.92567 24.5 4.92567C19.7877 4.92567 15.2301 6.63018 11.664 9.72629L10.8614 10.4233L13.3403 12.5635L7.65853 12.7525L7.02409 7.10018L9.29064 9.06117L9.89441 8.50896C13.8925 4.85326 19.0797 2.8395 24.5 2.8395C36.4427 2.84073 46.1593 12.5573 46.1593 24.5C46.1593 27.6219 45.5101 30.6321 44.2289 33.4447L45.904 34.2068L45.9052 34.208Z" fill="#00938B"/>
<path d="M42.2324 24.5H44.0731C44.0731 20.0319 42.5257 15.6596 39.7155 12.1892L38.2846 13.3476C40.8297 16.4916 42.2324 20.4516 42.2324 24.5Z" fill="#00938B"/>
<path d="M9.28451 36.8108L10.7154 35.6524C8.17025 32.5084 6.76761 28.5484 6.76761 24.5H4.92688C4.92688 28.9681 6.47432 33.3404 9.28451 36.8108Z" fill="#00938B"/>
<path d="M24.5 48C30.1069 48 35.4842 46.0145 39.7327 42.3919L44.3296 46.3703L42.9809 34.3516L30.8935 34.7529L35.3014 38.5595C32.2077 40.9353 28.4122 42.2336 24.5 42.2336C20.5878 42.2336 16.4916 40.8322 13.3476 38.2858L12.1892 39.7167C15.6596 42.5269 20.0319 44.0743 24.5 44.0743C29.2123 44.0743 33.7699 42.3698 37.336 39.2737L38.1386 38.5767L35.6597 36.4365L41.3415 36.2475L41.9759 41.8998L39.7093 39.9388L39.1056 40.491C35.1075 44.1467 29.9203 46.1605 24.5 46.1605C12.5573 46.1605 2.84072 36.4439 2.84072 24.5012C2.84072 21.3793 3.48989 18.3691 4.77104 15.5565L3.09597 14.7944C1.7056 17.8488 1.00122 21.1155 1.00122 24.5025C1.00122 37.46 11.5437 48.0024 24.5012 48.0024L24.5 48Z" fill="#00938B"/>
<path d="M20.6345 34.2559H28.3655V28.3655H34.2559V20.6345H28.3655V14.7441H20.6345V20.6345H14.7441V28.3655H20.6345V34.2559ZM26.5248 32.4151H22.4752V26.5248H16.5848V22.4752H22.4752V16.5849H26.5248V22.4752H32.4151V26.5248H26.5248V32.4151Z" stroke="#00938B" stroke-width="0.4"/>
<path d="M45.9052 34.208C47.2956 31.1536 48 27.8869 48 24.5C48 11.5425 37.4575 1 24.5 1C18.8931 1 13.5157 2.98554 9.26733 6.60809L4.67041 2.62966L6.01905 14.6484L18.1065 14.2471L13.6986 10.4405C16.7922 8.06473 20.5878 6.7664 24.5 6.7664C28.4122 6.7664 32.5084 8.16781 35.6524 10.7142L36.8108 9.28329C33.3404 6.47311 28.9681 4.92567 24.5 4.92567C19.7877 4.92567 15.2301 6.63018 11.664 9.72629L10.8614 10.4233L13.3403 12.5635L7.65853 12.7525L7.02409 7.10018L9.29064 9.06117L9.89441 8.50896C13.8925 4.85326 19.0797 2.8395 24.5 2.8395C36.4427 2.84073 46.1593 12.5573 46.1593 24.5C46.1593 27.6219 45.5101 30.6321 44.2289 33.4447L45.904 34.2068L45.9052 34.208Z" stroke="#00938B" stroke-width="0.4"/>
<path d="M42.2324 24.5H44.0731C44.0731 20.0319 42.5257 15.6596 39.7155 12.1892L38.2846 13.3476C40.8297 16.4916 42.2324 20.4516 42.2324 24.5Z" stroke="#00938B" stroke-width="0.4"/>
<path d="M9.28451 36.8108L10.7154 35.6524C8.17025 32.5084 6.76761 28.5484 6.76761 24.5H4.92688C4.92688 28.9681 6.47432 33.3404 9.28451 36.8108Z" stroke="#00938B" stroke-width="0.4"/>
<path d="M24.5 48C30.1069 48 35.4842 46.0145 39.7327 42.3919L44.3296 46.3703L42.9809 34.3516L30.8935 34.7529L35.3014 38.5595C32.2077 40.9353 28.4122 42.2336 24.5 42.2336C20.5878 42.2336 16.4916 40.8322 13.3476 38.2858L12.1892 39.7167C15.6596 42.5269 20.0319 44.0743 24.5 44.0743C29.2123 44.0743 33.7699 42.3698 37.336 39.2737L38.1386 38.5767L35.6597 36.4365L41.3415 36.2475L41.9759 41.8998L39.7093 39.9388L39.1056 40.491C35.1075 44.1467 29.9203 46.1605 24.5 46.1605C12.5573 46.1605 2.84072 36.4439 2.84072 24.5012C2.84072 21.3793 3.48989 18.3691 4.77104 15.5565L3.09597 14.7944C1.7056 17.8488 1.00122 21.1155 1.00122 24.5025C1.00122 37.46 11.5437 48.0024 24.5012 48.0024L24.5 48Z" stroke="#00938B" stroke-width="0.4"/>
</g>
</g>
<defs>
<clipPath id="clip0_3_10780">
<rect width="49" height="49" fill="white"/>
</clipPath>
</defs>
</svg>
