<svg width="42" height="42" viewBox="0 0 42 42" fill="none" xmlns="http://www.w3.org/2000/svg">
<g id="Group">
<path id="Vector" d="M21.3663 41.488C10.0688 41.488 0.910416 32.3295 0.910416 21.032C0.910416 9.73454 10.0688 0.576111 21.3663 0.576111C32.6638 0.576111 41.8223 9.73454 41.8223 21.032C41.8223 32.3295 32.6638 41.488 21.3663 41.488Z" fill="#10B5D5"/>
<g id="Group_2">
<path id="Vector_2" d="M25.9008 23.9174C25.9742 23.9174 26.035 24.0388 26.0321 24.1829C25.9615 29.1722 23.8977 33.1742 21.3621 33.1742C18.8264 33.1742 16.7626 29.1722 16.692 24.1829C16.6906 24.0374 16.7513 23.9174 16.8234 23.9174H25.9008Z" fill="#231F20"/>
<path id="Vector_3" d="M18.6652 31.4781C19.4266 32.546 20.3575 33.1746 21.3619 33.1746C22.4241 33.1746 23.4031 32.4725 24.1885 31.2902C24.1885 31.2902 23.1036 30.4949 21.3717 30.5938C19.5015 30.7011 18.6652 31.4781 18.6652 31.4781Z" fill="#ED6F5F"/>
<path id="Vector_4" d="M16.6234 23.9558L16.759 25.5097H25.9621C25.9621 25.5097 26.0059 25.0308 26.0158 24.8712C26.0299 24.6226 26.0469 23.9276 26.0469 23.9276C26.0469 23.9078 26.0313 23.8909 26.0116 23.8909L16.6587 23.9177C16.6375 23.9177 16.622 23.9361 16.6234 23.9558Z" fill="white"/>
</g>
<g id="Group_3">
<path id="Vector_5" d="M25.3302 20.111C25.6919 20.111 26.0238 19.8723 26.1255 19.5064C26.4306 18.4088 27.0268 17.9399 28.1173 17.9399C29.3675 17.9399 29.9565 18.916 30.1062 19.4937C30.2207 19.9359 30.6727 20.1986 31.1148 20.0856C31.557 19.9698 31.8211 19.5191 31.7067 19.077C31.3564 17.7336 30.0851 16.2871 28.1187 16.2871C26.2795 16.2871 25.0392 17.2477 24.5335 19.0643C24.412 19.5036 24.6691 19.9599 25.1084 20.0814C25.1819 20.1011 25.2568 20.1124 25.3302 20.1124V20.111Z" fill="#231F20"/>
<path id="Vector_6" d="M11.8351 20.111C12.1967 20.111 12.5287 19.8709 12.6304 19.5064C12.9355 18.4088 13.5316 17.9399 14.6222 17.9399C15.8723 17.9399 16.4614 18.916 16.6111 19.4937C16.7255 19.9345 17.1762 20.1986 17.6197 20.0856C18.0619 19.9712 18.326 19.5191 18.2116 19.077C17.8613 17.7336 16.5899 16.2871 14.6236 16.2871C12.783 16.2871 11.5441 17.2477 11.0384 19.0643C10.9169 19.5036 11.174 19.9599 11.6133 20.0814C11.6868 20.1011 11.7617 20.1124 11.8351 20.1124V20.111Z" fill="#231F20"/>
</g>
</g>
</svg>
