<svg width="42" height="42" viewBox="0 0 42 42" fill="none" xmlns="http://www.w3.org/2000/svg">
<g id="Group">
<path id="Vector" d="M21.3663 41.2298C10.0688 41.2298 0.910416 32.0714 0.910416 20.7739C0.910416 9.47636 10.0688 0.317932 21.3663 0.317932C32.6638 0.317932 41.8223 9.47636 41.8223 20.7739C41.8223 32.0714 32.6638 41.2298 21.3663 41.2298Z" fill="#2AB683"/>
<g id="Group_2">
<path id="Vector_2" d="M27.7049 19.0148C27.7049 20.0855 28.5722 20.9528 29.643 20.9528C30.7137 20.9528 31.5811 20.0855 31.5811 19.0148C31.5811 17.944 30.7137 17.0767 29.643 17.0767C28.5722 17.0767 27.7049 17.944 27.7049 19.0148Z" fill="#231F20"/>
<path id="Vector_3" d="M11.1492 19.0148C11.1492 20.0855 12.0165 20.9528 13.0873 20.9528C14.158 20.9528 15.0254 20.0855 15.0254 19.0148C15.0254 17.944 14.158 17.0767 13.0873 17.0767C12.0165 17.0767 11.1492 17.944 11.1492 19.0148Z" fill="#231F20"/>
</g>
<path id="Vector_4" d="M21.4519 34.1851C21.9082 34.1851 22.2783 33.815 22.2783 33.3588C22.2783 32.9025 21.9082 32.5324 21.4534 32.5324C21.4166 32.5324 17.7679 32.5041 15.8552 30.7963C15.5148 30.4926 14.9921 30.5223 14.6884 30.8627C14.3847 31.2031 14.4144 31.7258 14.7548 32.0295C17.1421 34.1597 21.2782 34.1851 21.4534 34.1851H21.4519Z" fill="#231F20"/>
</g>
</svg>
