<svg width="42" height="41" viewBox="0 0 42 41" fill="none" xmlns="http://www.w3.org/2000/svg">
<g id="Group">
<path id="Vector" d="M21.3663 40.9681C10.0688 40.9681 0.910416 31.8096 0.910416 20.5121C0.910416 9.21464 10.0688 0.0562134 21.3663 0.0562134C32.6638 0.0562134 41.8223 9.21464 41.8223 20.5121C41.8223 31.8096 32.6638 40.9681 21.3663 40.9681Z" fill="#39B44C"/>
<g id="Group_2">
<g id="Group_3">
<path id="Vector_2" d="M27.7117 18.7531C27.7117 19.8238 28.579 20.6912 29.6498 20.6912C30.7205 20.6912 31.5879 19.8238 31.5879 18.7531C31.5879 17.6823 30.7205 16.815 29.6498 16.815C28.579 16.815 27.7117 17.6823 27.7117 18.7531Z" fill="#231F20"/>
<path id="Vector_3" d="M11.1512 18.7531C11.1512 19.8238 12.0185 20.6912 13.0893 20.6912C14.16 20.6912 15.0273 19.8238 15.0273 18.7531C15.0273 17.6823 14.16 16.815 13.0893 16.815C12.0185 16.815 11.1512 17.6823 11.1512 18.7531Z" fill="#231F20"/>
</g>
<path id="Vector_4" d="M17.1196 29.3914H25.615C26.0713 29.3914 26.4414 29.0213 26.4414 28.565C26.4414 28.1088 26.0713 27.7386 25.615 27.7386H17.1196C16.6634 27.7386 16.2933 28.1088 16.2933 28.565C16.2933 29.0213 16.6634 29.3914 17.1196 29.3914Z" fill="#231F20"/>
</g>
</g>
</svg>
