<svg width="42" height="42" viewBox="0 0 42 42" fill="none" xmlns="http://www.w3.org/2000/svg">
<g id="Group">
<path id="Vector" d="M21.3664 41.7085C10.0689 41.7085 0.910416 32.5501 0.910416 21.2526C0.910416 9.95506 10.0689 0.796631 21.3664 0.796631C32.6638 0.796631 41.8223 9.95506 41.8223 21.2526C41.8223 32.5501 32.6638 41.7085 21.3664 41.7085Z" fill="#78B543"/>
<g id="Group_2">
<g id="Group_3">
<path id="Vector_2" d="M27.7059 19.4941C27.7059 20.5648 28.5732 21.4322 29.6439 21.4322C30.7147 21.4322 31.582 20.5648 31.582 19.4941C31.582 18.4233 30.7147 17.556 29.6439 17.556C28.5732 17.556 27.7059 18.4233 27.7059 19.4941Z" fill="#231F20"/>
<path id="Vector_3" d="M11.1502 19.4941C11.1502 20.5648 12.0175 21.4322 13.0883 21.4322C14.159 21.4322 15.0264 20.5648 15.0264 19.4941C15.0264 18.4233 14.159 17.556 13.0883 17.556C12.0175 17.556 11.1502 18.4233 11.1502 19.4941Z" fill="#231F20"/>
</g>
<path id="Vector_4" d="M28.6672 32.2921C29.0543 32.2921 29.4003 32.0195 29.4766 31.6254C29.5642 31.1776 29.2732 30.7439 28.8254 30.6549L13.1102 27.5613C12.6596 27.4723 12.2273 27.7647 12.1397 28.2125C12.0522 28.6603 12.3432 29.094 12.7909 29.183L28.5062 32.2766C28.5598 32.2879 28.6135 32.2921 28.6672 32.2921Z" fill="#231F20"/>
</g>
</g>
</svg>
