<svg width="42" height="42" viewBox="0 0 42 42" fill="none" xmlns="http://www.w3.org/2000/svg">
<g id="Group">
<path id="Vector" d="M21.3664 41.4474C10.0689 41.4474 0.910416 32.2889 0.910416 20.9914C0.910416 9.69395 10.0689 0.535522 21.3664 0.535522C32.6638 0.535522 41.8223 9.69395 41.8223 20.9914C41.8223 32.2889 32.6638 41.4474 21.3664 41.4474Z" fill="#FFCE34"/>
<path id="Vector_2" d="M21.4519 34.4029C21.8036 34.4029 22.1299 34.1769 22.2401 33.8237C22.3771 33.3886 22.1341 32.9253 21.6977 32.7883C21.6977 32.7883 19.1281 31.9831 15.5542 30.8445C15.1192 30.7061 14.6544 30.9462 14.516 31.3813C14.3775 31.8164 14.6177 32.2811 15.0528 32.4196C18.6337 33.561 21.2047 34.3662 21.2047 34.3662C21.2866 34.3916 21.3699 34.4043 21.4519 34.4043V34.4029Z" fill="#231F20"/>
<g id="Group_2">
<path id="Vector_3" d="M27.7078 19.2327C27.7078 20.3035 28.5751 21.1708 29.6459 21.1708C30.7166 21.1708 31.584 20.3035 31.584 19.2327C31.584 18.162 30.7166 17.2946 29.6459 17.2946C28.5751 17.2946 27.7078 18.162 27.7078 19.2327Z" fill="#231F20"/>
<path id="Vector_4" d="M11.1472 19.2327C11.1472 20.3035 12.0146 21.1708 13.0853 21.1708C14.1561 21.1708 15.0234 20.3035 15.0234 19.2327C15.0234 18.162 14.1561 17.2946 13.0853 17.2946C12.0146 17.2946 11.1472 18.162 11.1472 19.2327Z" fill="#231F20"/>
<path id="Vector_5" d="M26.6816 15.9994C26.854 15.9994 27.0277 15.9458 27.1775 15.8342L31.4308 12.6445C31.7967 12.3705 31.8701 11.852 31.5961 11.4876C31.322 11.1217 30.8036 11.0497 30.4392 11.3223L26.1858 14.512C25.8199 14.786 25.7465 15.3044 26.0205 15.6689C26.183 15.885 26.4316 15.9994 26.6816 15.9994Z" fill="#231F20"/>
<path id="Vector_6" d="M16.0448 15.9996C16.2962 15.9996 16.5434 15.8852 16.7059 15.6691C16.9799 15.3046 16.9051 14.7862 16.5406 14.5122L12.2872 11.3225C11.9228 11.0499 11.4044 11.1233 11.1303 11.4878C10.8563 11.8522 10.9312 12.3707 11.2956 12.6447L15.549 15.8344C15.6973 15.946 15.871 15.9996 16.0448 15.9996Z" fill="#231F20"/>
</g>
</g>
</svg>
