<svg width="42" height="42" viewBox="0 0 42 42" fill="none" xmlns="http://www.w3.org/2000/svg">
<g id="Group">
<path id="Vector" d="M21.3663 41.8721C10.0688 41.8721 0.910416 32.7136 0.910416 21.4161C0.910416 10.1186 10.0688 0.960205 21.3663 0.960205C32.6638 0.960205 41.8223 10.1186 41.8223 21.4161C41.8223 32.7136 32.6638 41.8721 21.3663 41.8721Z" fill="#FAAA34"/>
<g id="Group_2">
<path id="Vector_2" d="M27.7107 19.6571C27.7107 20.7279 28.5781 21.5952 29.6488 21.5952C30.7196 21.5952 31.5869 20.7279 31.5869 19.6571C31.5869 18.5864 30.7196 17.7191 29.6488 17.7191C28.5781 17.7191 27.7107 18.5864 27.7107 19.6571Z" fill="#231F20"/>
<path id="Vector_3" d="M11.1502 19.6571C11.1502 20.7279 12.0175 21.5952 13.0883 21.5952C14.159 21.5952 15.0264 20.7279 15.0264 19.6571C15.0264 18.5864 14.159 17.7191 13.0883 17.7191C12.0175 17.7191 11.1502 18.5864 11.1502 19.6571Z" fill="#231F20"/>
</g>
<path id="Vector_4" d="M21.3677 34.1987C19.1427 34.1987 17.339 31.8447 17.339 28.9409C17.339 26.0372 19.1427 23.6832 21.3677 23.6832C23.5927 23.6832 25.3965 26.0372 25.3965 28.9409C25.3965 31.8447 23.5927 34.1987 21.3677 34.1987Z" fill="#231F20"/>
</g>
</svg>
