<svg width="42" height="41" viewBox="0 0 42 41" fill="none" xmlns="http://www.w3.org/2000/svg">
<g id="Group">
<path id="Vector" d="M21.3664 40.9261C10.0689 40.9261 0.910439 31.7677 0.910439 20.4702C0.910439 9.17268 10.0689 0.0142517 21.3664 0.0142517C32.6639 0.0142517 41.8223 9.17268 41.8223 20.4702C41.8223 31.7677 32.6639 40.9261 21.3664 40.9261Z" fill="#F68C1E"/>
<g id="Group_2">
<path id="Vector_2" d="M27.6658 18.84C27.6658 19.9108 28.5331 20.7781 29.6039 20.7781C30.6747 20.7781 31.542 19.9108 31.542 18.84C31.542 17.7693 30.6747 16.9019 29.6039 16.9019C28.5331 16.9019 27.6658 17.7693 27.6658 18.84Z" fill="#231F20"/>
<path id="Vector_3" d="M11.1062 18.8398C11.1062 19.9106 11.9736 20.7779 13.0443 20.7779C14.1151 20.7779 14.9824 19.9106 14.9824 18.8398C14.9824 17.769 14.1151 16.9017 13.0443 16.9017C11.9736 16.9017 11.1062 17.769 11.1062 18.8398Z" fill="#231F20"/>
</g>
<path id="Vector_4" d="M16.8354 30.1746C16.9922 30.1746 17.1504 30.1308 17.2916 30.0362C18.7636 29.0601 20.0759 28.5855 21.302 28.5855C22.9915 28.5855 24.4747 29.3695 25.4226 30.0263C25.7969 30.2862 26.3125 30.193 26.5724 29.8187C26.8324 29.4443 26.7391 28.9287 26.3648 28.6688C25.2234 27.8763 23.4195 26.9327 21.302 26.9327C19.7397 26.9327 18.1293 27.4978 16.3777 28.6589C15.9977 28.9118 15.8931 29.4245 16.146 29.8045C16.3056 30.0447 16.5684 30.1746 16.8354 30.1746Z" fill="#231F20"/>
</g>
</svg>
