<svg width="42" height="42" viewBox="0 0 42 42" fill="none" xmlns="http://www.w3.org/2000/svg">
<g id="Group">
<path id="Vector" d="M21.3663 41.6658C10.0688 41.6658 0.910439 32.5074 0.910439 21.2099C0.910439 9.91243 10.0688 0.753998 21.3663 0.753998C32.6638 0.753998 41.8223 9.91243 41.8223 21.2099C41.8223 32.5074 32.6638 41.6658 21.3663 41.6658Z" fill="#F27226"/>
<g id="Group_2">
<path id="Vector_2" d="M16.8283 33.4125C16.7549 33.4125 16.6941 33.291 16.697 33.1469C16.7676 28.1576 18.8314 24.1557 21.367 24.1557C23.9026 24.1557 25.9665 28.1576 26.0371 33.1469C26.0385 33.2924 25.9778 33.4125 25.9057 33.4125H16.8283Z" fill="#231F20"/>
<g id="Group_3">
<path id="Vector_3" d="M32.8484 21.9013C33.1888 21.9013 33.5081 21.6894 33.6281 21.3489C33.7807 20.9195 33.5547 20.4463 33.1239 20.2951L31.3143 19.6566L33.0377 19.2512C33.4826 19.1467 33.7581 18.7017 33.6536 18.2582C33.5491 17.8132 33.1041 17.5377 32.6605 17.6423L28.1924 18.6932C27.8351 18.7766 27.5765 19.0859 27.5568 19.4532C27.537 19.8191 27.7616 20.1553 28.1063 20.2768L32.5743 21.8532C32.6647 21.8857 32.758 21.9013 32.8498 21.9013H32.8484Z" fill="#231F20"/>
<path id="Vector_4" d="M9.8878 21.9013C9.97962 21.9013 10.0715 21.8857 10.1633 21.8532L14.6299 20.2768C14.976 20.1553 15.1992 19.8191 15.1794 19.4532C15.1597 19.0874 14.9012 18.778 14.5438 18.6932L10.0771 17.6423C9.63214 17.5377 9.18857 17.8132 9.08404 18.2568C8.97951 18.7017 9.25498 19.1467 9.69854 19.2498L11.4219 19.6552L9.61235 20.2937C9.18151 20.4463 8.95693 20.9181 9.10808 21.3475C9.22815 21.6866 9.54737 21.8984 9.8878 21.8984V21.9013Z" fill="#231F20"/>
</g>
</g>
</g>
</svg>
