<svg id="e7iRhKAf6Pz1" xmlns="http://www.w3.org/2000/svg" xmlns:xlink="http://www.w3.org/1999/xlink" viewBox="0 0 58 58" shape-rendering="geometricPrecision" text-rendering="geometricPrecision"><g transform="matrix(1.419808 0 0 1.419808-12.474327-12.069213)"><path d="M14.7773,43.421c-7.98851-7.9885-7.98849-20.9405,0-28.929c7.9886-7.98853,20.9405-7.98855,28.9291,0c7.9885,7.9885,7.9885,20.9405,0,28.929-7.9886,7.9886-20.9405,7.9886-28.9291,0Z" fill="#ee5b28"/><g><path d="M34.8794,29.0089c.0226,0,.0452,0,.0678-.0028l4.7209-.3871c.4548-.0367.7939-.4365.7557-.8913-.0367-.4549-.4322-.7939-.8913-.7558l-1.9127.1568l1.4069-1.075c.3631-.2768.4323-.7953.1554-1.1583-.2768-.3631-.7952-.4323-1.1583-.1554l-3.6473,2.7857c-.291.2231-.4012.6102-.2698.9535.1229.3206.4308.5297.7712.5297h.0015Z" fill="#231f20"/><path d="M23.5694,29.0091c.339,0,.6483-.2091.7712-.5297.1314-.3419.0212-.7303-.2698-.9535l-3.6473-2.7857c-.3616-.2769-.8815-.2076-1.1583.1554s-.2077.8815.1553,1.1583l1.407,1.075-1.9127-.1568c-.4534-.0381-.8532.3009-.8913.7558-.0368.4548.3008.8532.7557.8913l4.7209.3871c.0226.0014.0452.0028.0678.0028h.0015Z" fill="#231f20"/></g><path d="M29.2468,40.433c1.7304,0,2.5681-1.3589,3.2419-2.4508.6371-1.0327,1.0665-1.6655,1.835-1.6655c1.1908,0,2.1203,1.4465,2.9481,3.0103.2133.4025.7133.5579,1.1174.3432.4025-.2133.558-.7133.3432-1.1173-1.0693-2.0201-2.3435-3.8904-4.4087-3.8904-1.7305,0-2.5681,1.359-3.2419,2.4509-.6371,1.0326-1.0666,1.6655-1.835,1.6655s-1.1979-.6329-1.835-1.6655c-.6738-1.0919-1.5115-2.4509-3.2419-2.4509-2.0723,0-3.4129,2.0031-4.4525,3.9624-.2133.4026-.0608.9041.3432,1.1174s.9041.0593,1.1174-.3433c.7614-1.4366,1.7898-3.0837,2.9919-3.0837.7684,0,1.1979.6328,1.835,1.6654.6738,1.092,1.5114,2.4509,3.2419,2.4509v.0014Z" fill="#231f20"/></g></svg>
