<svg id="etTHmAWLIYl1" xmlns="http://www.w3.org/2000/svg" xmlns:xlink="http://www.w3.org/1999/xlink" viewBox="0 0 59.52 59.52" shape-rendering="geometricPrecision" text-rendering="geometricPrecision"><g transform="matrix(1.454745 0 0 1.454745-12.781269-13.43224)"><path d="M14.7773,44.1539c-7.98851-7.9886-7.98851-20.9406,0-28.9291s20.9405-7.98853,28.9291,0c7.9885,7.9885,7.9885,20.9405,0,28.9291-7.9886,7.9885-20.9405,7.9885-28.9291,0Z" fill="#ed4923"/><g><path d="M35.5838,27.9314c0,1.0707.8673,1.9381,1.9381,1.9381c1.0707,0,1.9381-.8674,1.9381-1.9381s-.8674-1.9381-1.9381-1.9381c-1.0708,0-1.9381.8673-1.9381,1.9381Z" fill="#231f20"/><path d="M19.0232,27.9314c0,1.0707.8674,1.9381,1.9381,1.9381s1.9381-.8674,1.9381-1.9381-.8673-1.9381-1.9381-1.9381-1.9381.8673-1.9381,1.9381Z" fill="#231f20"/></g><path d="M21.7391,42.7662c.3009,0,.5919-.1652.7374-.452c1.4267-2.8083,4.0301-4.5528,6.7946-4.5528c2.7644,0,5.2873,1.6654,6.7437,4.4553.2105.404.7106.5608,1.1146.3504.404-.2105.5608-.7106.3503-1.1146-1.7474-3.345-4.8156-5.3425-8.21-5.3425-3.3945,0-6.5587,2.0907-8.268,5.4569-.2062.4069-.0438.9041.363,1.1103.1201.0608.2473.0904.3744.0904v-.0014Z" fill="#231f20"/><g><path d="M34.561,26.4365c.1723,0,.3461-.0537.4958-.1653l4.2533-3.1897c.3645-.274.4393-.7925.1653-1.1569-.274-.3659-.7925-.4393-1.1569-.1653L34.0652,24.949c-.3645.274-.4394.7925-.1653,1.1569.1624.2161.4111.3306.6611.3306Z" fill="#231f20"/><path d="M23.9286,26.4367c.2514,0,.4986-.1145.6611-.3306.274-.3644.1991-.8829-.1653-1.1569L20.171,21.7595c-.3644-.2726-.8828-.1992-1.1569.1653-.274.3644-.1992.8829.1653,1.1569l4.2533,3.1897c.1484.1116.3221.1653.4959.1653Z" fill="#231f20"/></g></g></svg>
