<svg id="eCWgZz0oej21" xmlns="http://www.w3.org/2000/svg" xmlns:xlink="http://www.w3.org/1999/xlink" viewBox="0 0 58.48 58.48" shape-rendering="geometricPrecision" text-rendering="geometricPrecision"><g transform="matrix(1.429503 0 0 1.429503-12.559495-12.826957)"><path d="M14.7773,43.8935c-7.98851-7.9886-7.98851-20.9405,0-28.9291s20.9405-7.98851,28.9291,0c7.9885,7.9886,7.9885,20.9405,0,28.9291-7.9886,7.9885-20.9405,7.9885-28.9291,0Z" fill="#e72127"/><path d="M26.6462,39.6443h.0056c1.1894-.0029,1.7799-.7982,2.2094-1.3787.3898-.5255.5551-.7092.8857-.7106h.0028c.3291,0,.4958.1837.8871.7063.4322.5778,1.0241,1.3688,2.2107,1.3688h.0043c1.1922-.0028,1.7827-.7981,2.2121-1.3787.3899-.5254.5551-.7091.8857-.7105h.0057c.5071,0,.8871.154,1.3094.5311.3405.3037.8631.2741,1.1668-.0678.3038-.3404.2727-.8631-.0678-1.1668-.7274-.6469-1.4931-.9492-2.4084-.9492h-.0099c-1.1895.0028-1.7799.7981-2.2108,1.3787-.3898.5254-.5551.7091-.8857.7105h-.0014c-.3291,0-.4958-.1836-.8871-.7063-.4323-.5778-1.0241-1.3688-2.2093-1.3688h-.0042c-1.1923.0028-1.7814.7981-2.2122,1.3787-.3899.5255-.5552.7091-.8857.7105h-.0014c-.3292,0-.4958-.1836-.8871-.7063-.4323-.5777-1.0242-1.3688-2.2108-1.3688h-.0056c-1.1908.0028-1.8816.5453-2.4509,1.1301-.3178.3277-.3107.8504.0156,1.1682s.8504.3108,1.1682-.0155c.4139-.4252.7091-.6286,1.2699-.63h.0014c.3292,0,.4959.1836.8872.7063.4322.5777,1.0241,1.3688,2.2107,1.3688Z" fill="#231f20"/><g><path d="M37.0248,32.4362c1.099,0,2.2037-.404,2.9933-1.1725.3277-.3178.3348-.8419.0155-1.1682-.3178-.3277-.8419-.3348-1.1682-.0156-.7896.7685-2.1556.9366-3.1077.38s-1.4776-1.8265-1.1965-2.893c.2472-.9351,1.1018-1.6753,1.989-1.7234.4633-.0268.9139.1526,1.2586.4436-.1695-.0777-.3532-.1257-.5467-.1384-.6145-.041-1.2374.2797-1.5934.8193-.2825.4294-.3772.9605-.267,1.4945.1159.558.445,1.0496.9013,1.349.8235.5397,1.9945.4521,2.7842-.209.6823-.5707,1.0467-1.5143.9478-2.4594-.1751-1.6923-1.818-3.0371-3.5724-2.9495-1.5991.0848-3.071,1.3265-3.5004,2.9524-.469,1.777.3743,3.8154,1.962,4.7421.6343.3701,1.3661.5509,2.0992.5509l.0014-.0028Z" fill="#231f20"/><path d="M22.4037,32.4362c1.099,0,2.2037-.404,2.9933-1.1725.3277-.3178.3348-.8419.0155-1.1682-.3178-.3277-.8418-.3348-1.1682-.0156-.7896.7685-2.1556.9366-3.1077.38s-1.4776-1.8265-1.1965-2.893c.2472-.9351,1.1018-1.6753,1.989-1.7234.4591-.0268.9139.1526,1.2586.4436-.1695-.0777-.3532-.1257-.5467-.1384-.6116-.041-1.2374.2797-1.5934.8193-.2825.4294-.3772.9605-.267,1.4945.1159.558.445,1.0496.9013,1.349.8235.5397,1.9945.4521,2.7842-.209.6837-.5707,1.0467-1.5143.9478-2.4594-.1751-1.6923-1.8208-3.0371-3.5724-2.9495-1.5991.0848-3.071,1.3265-3.499,2.9524-.469,1.777.3743,3.8154,1.9621,4.7421.6342.3701,1.366.5509,2.0991.5509v-.0028Z" fill="#231f20"/></g></g></svg>
